# xmcd
#
# Track frame offsets:
#	150
#	17771
#	36219
#	48894
#	67130
#	83977
#	100173
#	116627
#	132986
#	147721
#
# Disc length: 2201 seconds
# Revision: 1
# Processed by: cddbd v1.5.2PL0 Copyright (c) Steve Scherf et al.
# Submitted via: dBpowerAMP V12.0
#
DISCID=9008970a
DTITLE=Garth Brooks - The Anthology Part 1, The First Five Years 1993
DYEAR=1993
DGENRE=Country
TTITLE0=Standing Outside The Fire (Master)
TTITLE1=One Night A Day (Master)
TTITLE2=Kickin' And Screamin' (Tony Arata Day-Write)
TTITLE3=Kickin' And Screamin' (Master)
TTITLE4=The Red Strokes (Master)
TTITLE5=Aint goin down
TTITLE6=Tomorrow And Today (Demo)
TTITLE7=I Guess You Had To Be There (Trisha Yearwood Demo)
TTITLE8=Like We Never Had A Broken Heart (Day-Write)
TTITLE9=The Cowboy Song (Master)
EXTD=
EXTT0=
EXTT1=
EXTT2=
EXTT3=
EXTT4=
EXTT5=
EXTT6=
EXTT7=
EXTT8=
EXTT9=
PLAYORDER=
